<svg width="497" height="125" viewBox="0 0 497 125" fill="none" xmlns="http://www.w3.org/2000/svg">
<g clip-path="url(#clip0_4035_680)">
<path d="M94.0544 8.41213C84.4363 2.79825 73.982 0 62.6564 0C51.3309 0 40.8591 2.79825 31.2585 8.41213C21.6579 14.026 14.0437 21.6039 8.43318 31.1805C2.80525 40.7571 0 51.2027 0 62.5C0 73.7973 2.80525 84.2429 8.43318 93.8195C14.0437 103.396 21.6579 110.991 31.2585 116.588C40.8591 122.184 51.3309 125 62.6564 125C73.982 125 84.4538 122.202 94.0544 116.588C103.655 110.991 111.269 103.396 116.88 93.8195C122.49 84.2429 125.313 73.7973 125.313 62.5C125.313 51.2027 122.508 40.7571 116.88 31.1805C111.269 21.6039 103.655 14.0086 94.0544 8.41213ZM66.4549 85.1293C59.3807 85.1293 53.7005 83.1132 49.3968 79.0983C46.4173 76.3174 44.4833 72.9283 43.5772 69.0003H111.182C110.485 74.7011 108.83 80.0716 106.251 85.1293H66.4549ZM43.5947 56.2604C44.5181 52.3846 46.4348 49.0302 49.3968 46.2319C53.7005 42.1649 59.3807 40.1314 66.4549 40.1314H106.39C108.934 45.1891 110.537 50.5597 111.2 56.2604H43.5947ZM20.2466 37.6286C24.6026 30.0855 30.5093 24.0893 37.9842 19.6746C45.459 15.2426 53.6831 13.0353 62.6564 13.0353C71.6298 13.0353 79.8539 15.2426 87.3287 19.6746C91.1446 21.9341 94.5422 24.6107 97.5391 27.6696H65.9147C58.7535 27.6696 52.3937 29.1644 46.8181 32.1364C41.2424 35.1258 36.9213 39.2102 33.8373 44.407C31.6767 48.0569 30.2828 52.0196 29.6381 56.2778H14.096C14.88 49.6211 16.9186 43.4163 20.2466 37.6286ZM87.3287 105.343C79.8539 109.775 71.6298 111.982 62.6564 111.982C53.6831 111.982 45.459 109.775 37.9842 105.343C30.5093 100.911 24.6026 94.9319 20.2466 87.3888C16.9709 81.688 14.9149 75.5701 14.1134 69.0177H29.6381C30.2828 73.2759 31.6767 77.2212 33.8373 80.8885C36.9213 86.0852 41.2424 90.1696 46.8181 93.1591C52.3937 96.1485 58.7535 97.6258 65.9147 97.6258H97.2778C94.3506 100.581 91.0226 103.153 87.3287 105.36V105.343Z" fill="#F9F9F8"/>
<path d="M226.425 82.6439L214.455 36.8813C213.636 33.718 212.068 31.2152 209.768 29.3555C207.45 27.4958 204.68 26.5747 201.404 26.5747C198.128 26.5747 195.497 27.4958 193.18 29.3555C190.863 31.2152 189.312 33.718 188.493 36.8813L176.697 82.418L161.991 27.6696H145.003L162.81 87.858C164.901 95.2621 169.379 98.9815 176.261 98.9815C179.886 98.9815 182.761 97.9908 184.886 95.9921C187.012 94.0107 188.528 91.2994 189.434 87.858L201.387 41.713L213.218 87.858C215.117 95.2621 219.612 98.9815 226.669 98.9815C233.726 98.9815 237.942 95.2795 240.12 87.858L257.788 27.6696H240.939L226.408 82.6613L226.425 82.6439Z" fill="#F9F9F8"/>
<path d="M316.993 30.7112C311.244 27.409 304.779 25.7578 297.636 25.7578C290.492 25.7578 284.149 27.409 278.399 30.7112C272.65 34.0135 268.137 38.4629 264.879 44.0594C261.62 49.6733 259.982 55.8607 259.982 62.6391C259.982 69.4174 261.62 75.6049 264.879 81.2187C268.137 86.8152 272.65 91.282 278.399 94.5669C284.149 97.8692 290.561 99.5203 297.636 99.5203C304.71 99.5203 311.244 97.8692 316.993 94.5669C322.743 91.2646 327.256 86.8152 330.514 81.2187C333.773 75.6222 335.411 69.4174 335.411 62.6391C335.411 55.8607 333.773 49.6733 330.514 44.0594C327.256 38.4629 322.743 34.0135 316.993 30.7112ZM316.384 74.0232C314.572 77.4646 312.063 80.1759 308.839 82.1573C305.616 84.1387 301.922 85.1467 297.757 85.1467C293.593 85.1467 289.899 84.156 286.676 82.1573C283.452 80.1759 280.943 77.482 279.131 74.0928C277.319 70.7036 276.413 66.8799 276.413 62.6391C276.413 58.3982 277.319 54.6788 279.131 51.2549C280.943 47.8136 283.452 45.1022 286.676 43.1209C289.882 41.1395 293.576 40.1314 297.757 40.1314C301.939 40.1314 305.616 41.1221 308.839 43.1209C312.063 45.1022 314.572 47.7962 316.384 51.1854C318.196 54.5746 319.102 58.3982 319.102 62.6391C319.102 66.8799 318.196 70.5993 316.384 74.0232Z" fill="#F9F9F8"/>
<path d="M367.767 31.6498C364.509 34.083 362.157 37.2984 360.693 41.3133V27.6523H344.663V97.6085H360.832V66.428C360.832 58.1202 362.801 52.1239 366.739 48.474C370.677 44.8068 376.322 42.9471 383.658 42.8428H384.059V26.7137H383.518C377.455 26.7137 372.193 28.3649 367.75 31.6672L367.767 31.6498Z" fill="#F9F9F8"/>
<path d="M412.268 81.549C410.769 79.7935 410.02 77.0474 410.02 73.3454V0.816895H393.851V75.3789C393.851 83.148 395.889 88.8661 399.966 92.5334C404.044 96.2007 410.212 98.0256 418.453 98.0256H420.091V84.3298C416.38 84.2429 413.766 83.3218 412.268 81.549Z" fill="#F9F9F8"/>
<path d="M480.83 0.816895V36.412C479.314 34.2742 477.345 32.3624 474.923 30.7112C470.08 27.4089 464.347 25.7578 457.726 25.7578C450.756 25.7578 444.571 27.3394 439.17 30.5027C433.786 33.6659 429.586 38.0805 426.607 43.7118C423.61 49.3604 422.129 55.6695 422.129 62.6217C422.129 69.5738 423.593 76.0046 426.555 81.6011C429.499 87.215 433.664 91.5948 439.065 94.7581C444.449 97.9213 450.687 99.5029 457.743 99.5029C462.099 99.5029 466.124 98.7556 469.836 97.2609C473.547 95.7661 476.631 93.6457 479.07 90.8822C479.732 90.1523 480.307 89.3875 480.83 88.6054V97.5911H496.999V0.816895H480.83ZM478.513 74.2318C476.701 77.7079 474.157 80.454 470.898 82.4354C467.64 84.4167 463.877 85.4248 459.625 85.4248C455.374 85.4248 451.645 84.4341 448.474 82.4354C445.303 80.454 442.846 77.7079 441.138 74.2318C439.413 70.7557 438.56 66.8973 438.56 62.6391C438.56 58.3809 439.413 54.5224 441.138 51.0463C442.863 47.5702 445.303 44.8415 448.474 42.8428C451.645 40.8614 455.356 39.8533 459.625 39.8533C463.894 39.8533 467.64 40.844 470.898 42.8428C474.157 44.8241 476.701 47.5702 478.513 51.0463C480.325 54.5224 481.231 58.3982 481.231 62.6391C481.231 66.8799 480.325 70.7557 478.513 74.2318Z" fill="#F9F9F8"/>
</g>
<defs>
<clipPath id="clip0_4035_680">
<rect width="497" height="125" fill="white"/>
</clipPath>
</defs>
</svg>
